<svg version="1.2" xmlns="http://www.w3.org/2000/svg" viewBox="0 0 380 510" width="18" height="18"><style>.a{fill:#fefefe}</style><path class="a" d="m333.1 4.9q3 0 6.1 0c1.9 0 1.9 0 3.9 0q1.8 0 3.6 0c3.2 0.1 6.2 0.5 9.3 1.1q0 1 0 2 2.5 0 5 0 0 1 0 2 2 0 4 0 0.5 2 1 4c2 0.5 2 0.5 4 1q0 1 0 2 1 0 2 0 0 1 0 2 1 0 2 0 0.5 2.5 1 5 1 0 2 0c0 7.9 0 15.8 0 24q-1 0-2 0-0.5 2.5-1 5-1 0-2 0 0 2 0 4-1 0-2 0 0 1 0 2-1 0.2-1.9 0.4-1.1 0.3-2.1 0.6-0.5 1-1 2-2 0-4 0 0 1 0 2c-7.6 0-15.2 0-23 0q0-1 0-2c-4.3 0-8.6 0-13 0q0-1 0-2-1 0-2.1 0c-6.3 0.1-12.6 0-18.9-1q-0.5-0.5-1-1-2.3-0.3-4.6-0.6-1.2-0.1-2.5-0.2-0.9-0.1-1.9-0.2 0 1 0 2c-3.5 0.5-3.5 0.5-7 1q0 1 0 2-1 0-2 0-0.5 2-1 4-1 0-2 0 0 1 0 2-1 0-2 0 0 1.5 0 3-1 0-2 0 0 1 0 2-1 0-2 0c-0.3 2.3-0.7 4.6-1 7q-1 0-2 0 0 2 0 4-1 0-2 0 0 1.5 0 3-1 0-2 0 0 2 0 4-1 0-2 0c-0.3 3.6-0.7 7.3-1 11q-1 0-2 0 0 2.5 0 5-1 0-2 0c0 2.3 0 4.6 0 7q-1 0-2 0c0 2.6 0 5.3 0 8q-1 0-2 0c0 1.6 0 1.6 0.1 3.2-0.1 3.1-0.4 5.8-1.1 8.8q-1 0-2 0c0 2.3 0 4.6 0 7q-1 0-2 0c0 2.6 0 5.3 0 8q-1 0-2 0c0 2.3 0 4.6 0 7q-1 0-2 0c-0.3 2.3-0.7 4.6-1 7 21.1 0 42.2 0 64 0-0.3 5.3-0.7 10.6-1 16q-1 0-2 0c0 3 0 5.9 0 9q-1 0-2 0c0 2.6 0 5.3 0 8q-1 0-2 0 0 1.5 0 3-1.5 0-3 0 0 1 0 2-1 0-2 0 0 1 0 2-2 0-4 0 0 1 0 2c-19.5 0.3-38.9 0.7-59 1 0 2.6 0 5.3 0 8q-1 0-2 0c0 2.3 0 4.6 0 7q-1 0-2 0c0 3 0 5.9 0 9q-1 0-2 0c-0.3 4-0.7 7.9-1 12q-1 0-2 0c0 2.6 0 5.3 0 8q-1 0-2 0c0 2.3 0 4.6 0 7q-1 0-2 0c0 2.3 0 4.6 0 7q-1 0-2 0c-0.3 4.6-0.7 9.2-1 14q-1 0-2 0c0 2.6 0 5.3 0 8q-1 0-2 0c0 2.3 0 4.6 0 7q-1 0-2 0c0 2.3 0 4.6 0 7q-1 0-2 0c-0.3 4.6-0.7 9.2-1 14q-1 0-2 0c0 2.6 0 5.3 0 8q-1 0-2 0c0 2.3 0 4.6 0 7q-1 0-2 0c0 2.3 0 4.6 0 7q-1 0-2 0-0.1 1.5-0.2 3-0.1 2-0.2 3.9c-0.2 2-0.2 2-0.3 3.9-0.3 3.2-0.3 3.2-1.3 4.2q-0.6 3.5-1 7-1 0-2 0c0 2.3 0 4.6 0 7q-1 0-2 0c0 2.3 0 4.6 0 7q-1 0-2 0c-0.3 4.3-0.7 8.6-1 13q-1 0-2 0 0 2.5 0 5-1 0-2 0 0 3 0 6-1 0-2 0 0 1.5 0 3-1 0-2 0c-0.3 3-0.7 5.9-1 9q-1 0-2 0 0 3 0 6-1 0-2 0 0 1.5 0 3-1 0-2 0 0 2 0 4-1 0-2 0c-0.3 2.3-0.7 4.6-1 7q-1 0-2 0 0 1 0 2-1 0-2 0 0 1.5 0 3-1 0-2 0 0 2 0 4-1 0-2 0-0.5 2.5-1 5-1 0-2 0 0 1 0 2-1 0-2 0 0 2 0 4-1 0-2 0 0 1 0 2c-1.4 1.6-1.4 1.6-3 3q-1 0-2 0 0 2 0 4-1 0-2 0 0 1 0 2-2 0.5-4 1-0.5 2-1 4-1 0-2 0 0 1 0 2-1 0-2 0 0 1 0 2-2 0.5-4 1-0.5 2-1 4-1 0-2 0 0 1 0 2-1 0-2 0 0 1 0 2-2.5 0.5-5 1 0 1 0 2-1 0-2 0 0 1 0 2-1 0-2 0 0 1 0 2-2 0-4 0-0.5 1.5-1 3-2 0-4 0 0 1 0 2-1 0-2 0 0 1 0 2-1.5 0-3 0 0 1 0 2-1 0-2 0 0 1 0 2c-2.3 0.3-4.6 0.7-7 1q0 1 0 2-2 0-4 0 0 1 0 2-2 0-4 0 0 1 0 2-2.5 0-5 0 0 1 0 2c-3 0.3-5.9 0.7-9 1q0 1 0 2c-20.1 0-40.3 0-61 0q0-1 0-2-3-0.5-6-1-0.5-2-1-4-1 0-2 0 0-1 0-2-1 0-2 0 0-1.5 0-3-1 0-2 0 0-2 0-4-1 0-2 0c-1.3-5-1.1-9.9-1.1-15.1q0-1.3 0-2.7 0-1.3 0-2.6 0-1.2 0-2.4c0.1-2.2 0.5-4.1 1.1-6.2q1 0 2 0 0-1 0-2 2-0.5 4-1 0-1 0-2 1 0 2 0 0-1 0-2 1.5 0 3 0 0-1 0-2 3 0 6 0 0-1 0-2 6.5 0 12.9-0.1 1.9 0 3.8 0c1.7 0 1.7 0 3.5 0 1.6 0 1.6 0 3.3 0 2.5 0.1 2.5 0.1 3.5 1.1q3.3 0.2 6.7 0.3 1 0 2 0.1 3.2 0.1 6.4 0.2 2.1 0 4.3 0.1 5.3 0.2 10.6 0.3 0-1 0-2c14.4-0.5 14.4-0.5 29-1q0-1 0-2 1 0 2 0 0-1 0-2 1 0 2 0 0.5-2.5 1-5 1 0 2 0 0-3 0-6 1 0 2 0 0-2.5 0-5 1 0 2 0 0-2 0-4 1 0 2 0c0.5-5.9 0.5-5.9 1-12q1 0 2 0 0-3 0-6 1 0 2 0 0-2.5 0-5 1 0 2 0 0-3 0-6 1 0 2 0 0-1.6-0.1-3.2c0.1-3.1 0.4-5.8 1.1-8.8q1 0 2 0c0-2.3 0-4.6 0-7q1 0 2 0c0-2.6 0-5.3 0-8q1 0 2 0c0-2.3 0-4.6 0-7q1 0 2 0c0.3-4.6 0.7-9.2 1-14q1 0 2 0c0-2.3 0-4.6 0-7q1 0 2 0c0-2.6 0-5.3 0-8q1 0 2 0c0-2.3 0-4.6 0-7q1 0 2 0c0.3-4.6 0.7-9.2 1-14q1 0 2 0c0-2.6 0-5.3 0-8q1 0 2 0c0-2.3 0-4.6 0-7q1 0 2 0c0-2.3 0-4.6 0-7q1 0 2 0c0.3-4.6 0.7-9.2 1-14q1 0 2 0c0-2.6 0-5.3 0-8q1 0 2 0c0-2.3 0-4.6 0-7q1 0 2 0c0-2.3 0-4.6 0-7q1 0 2 0c0.3-5.3 0.7-10.6 1-16q1 0 2 0c0-2.3 0-4.6 0-7q1 0 2 0c0-2.6 0-5.3 0-8q1 0 2 0c0-2.3 0-4.6 0-7q1 0 2 0c0-1.6 0-1.6-0.1-3.2 0.1-3.1 0.4-5.7 1.1-8.8q-2 0-4 0-7.3 0.1-14.6 0.1-3.1 0-6.3 0.1-4.5 0-9.1 0-1.4 0-2.8 0-1.4 0-2.7 0-1.2 0-2.3 0c-2.5-0.2-4.1-1-6.2-2.2q0-1 0-2-2 0-4 0 0-2 0-4-1 0-2 0c0-5.3 0-10.6 0-16q1 0 2 0 0-2.5 0-5 1 0 2 0 0-2 0-4 1 0 2 0 0-1.5 0-3 1 0 2 0 0-1 0-2 1.5 0 3 0 0-1 0-2 3 0 6 0 0-1 0-2c15.8 0 31.7 0 48 0q0-2.5 0-5 1 0 2 0 0-3 0-6 1 0 2 0c0-2.3 0-4.6 0-7q1 0 2 0c0.3-3.6 0.7-7.3 1-11q1 0 2 0 0-2.5 0-5 1 0 2 0c0-2.3 0-4.6 0-7q1 0 2 0 0-3 0-6 1 0 2 0c0.3-3 0.7-5.9 1-9q1 0 2 0 0-2.5 0-5 1 0 2 0 0-2 0-4 1 0 2 0 0-1.5 0-3 1 0 2 0c0.3-3 0.7-5.9 1-9q1 0 2 0 0-1 0-2 1 0 2 0 0-2 0-4 1 0 2 0 0-1.5 0-3 1 0 2 0 0.5-3 1-6 1 0 2 0 0-1.5 0-3 1 0 2 0 0-1 0-2 1 0 2 0 0-1 0-2 1 0 2 0 0.5-2.5 1-5 1 0 2 0 0-1 0-2 1 0 2 0 0-1 0-2 1 0 2 0 0-2 0-4c1.4-1.8 1.4-1.8 3-3q1 0 2 0 0-1 0-2 1 0 2 0 0-1 0-2 1 0 2 0 0-1 0-2c2.5-0.5 2.5-0.5 5-1q0-1 0-2 1 0 2 0 0-1 0-2 1 0 2 0 0-1 0-2 1 0 2 0 0.5-1.5 1-3 2 0 4 0 0-1 0-2 1 0 2 0 0-1 0-2 1.5 0 3 0 0-1 0-2 1 0 2 0 0-1 0-2c2.3-0.3 4.6-0.7 7-1q0-1 0-2 2 0 4 0 0-1 0-2 2 0 4 0 0-1 0-2 1.5 0 3 0 0-1 0-2c3-0.3 5.9-0.7 9-1q0-1 0-2 2 0 4 0 0-1 0-2 2.5 0 5 0 0-1 0-2c2.3 0 4.6 0 7 0q0-1 0-2c7-1.1 14-1.2 21.1-1.1z"/></svg>