<svg xmlns="http://www.w3.org/2000/svg" viewBox="0 0 31 36" width="18" height="18">
	<defs>
	<linearGradient id="P" gradientUnits="userSpaceOnUse"/>
	<linearGradient id="g1" x2="1" href="#P" gradientTransform="matrix(19.484,-28.212,23.355,16.129,0,20.834)">
		<stop offset="1" stop-color="#fff"/>
	</linearGradient>
	<linearGradient id="g2" x2="1" href="#P" gradientTransform="matrix(0,-26.166,28.271,0,1.904,35.434)">
		<stop stop-color="#fff"/>
		<stop offset="1" stop-color="#fff"/>
	</linearGradient>
	</defs>
	<path fill="#fff" d="m18.5 0c0 0 0 0.5 0 0.9v0.7h5.8 5.9l-0.1 0.3c0 0.1-0.1 0.4-0.1 0.6-0.2 0.6-0.6 1.7-0.7 2.5-0.2 0.5-0.2 0.7-0.4 0.7-0.1 0.1-4.4 0.1-10.6 0.1h-10.5l-0.4 0.2c-1.3 0.5-2.1 1.6-2.5 3.4-0.1 0.8-0.1 2.7 0 3.5 0.5 2 1.2 2.9 2.4 3.5l0.3 0.2 6.9 0.1c3.9 0 7 0 7.1 0 0 0.1 0 0.3-0.1 0.7-0.1 0.3-0.3 0.9-0.4 1.3q-0.1 1.2-0.3 1.8l-0.1 0.3h-7.1c-5.3 0-7.3-0.1-7.6-0.1-0.7-0.2-1.9-0.8-2.5-1.3-2.3-1.7-3.5-4.7-3.5-8.2 0-1.9 0.3-3.4 0.9-4.9 0.9-2.1 2.6-3.7 4.6-4.4q.6-0.3 1.3-0.3h3.4 4.1v-0.8-0.8h2.1c1.9 0 2.1 0 2.1 0z"/>
	<path fill="#fff" d="m14.3 30.1c0 0 0-0.6 0-1v-0.6h-5.7-1.9v6.9h-4.8v-6c0-0.2 0-1.6 0-1.6v-2.3-1.2c0 0 9.1-0.1 12.6-0.1l7.8 0.1 0.5-0.2c1.2-0.5 2-1.6 2.4-3.4 0.2-0.8 0.2-2.7 0-3.5-0.5-2-1.1-2.9-2.3-3.5l-0.4-0.2h-6.9c-3.8-0.1-5.5-0.1-5.5-0.1l-0.4-1.2-0.6-1.9-0.2-0.6-0.1-0.4h7.7c5.4 0 7.3 0.1 7.7 0.1 0.7 0.2 1.8 0.8 2.5 1.3 2.2 1.7 3.4 4.7 3.4 8.2 0 1.9-0.2 3.5-0.8 4.9-0.8 1.7-1.9 3-3.4 3.8-0.8 0.5-1.8 0.7-2.7 0.8-1.3 0.2-3.3 0.1-3.3 0.1h-1.4v0.7 0.9h-2.1c-1.9 0-2.1 0-2.1 0z"/>
</svg>