 <svg baseProfile="full"
    height="18" version="1.1" viewBox="0 0 1030 800" width="18"
    xmlns="http://www.w3.org/2000/svg"
    xmlns:ev="http://www.w3.org/2001/xml-events"
    xmlns:xlink="http://www.w3.org/1999/xlink"><defs />
    <path d="M 968,231 L 967,232 L 961,232 L 960,233 L 956,233 L 955,234 L 952,234 L 951,235 L 949,235 L 948,236 L 946,236 L 945,237 L 944,237 L 943,238 L 942,238 L 941,239 L 939,239 L 937,241 L 936,241 L 935,242 L 934,242 L 933,243 L 932,243 L 930,245 L 929,245 L 927,247 L 926,247 L 922,251 L 921,251 L 912,260 L 912,261 L 908,265 L 908,266 L 906,268 L 906,269 L 904,271 L 904,272 L 903,273 L 903,274 L 902,275 L 902,276 L 901,277 L 901,278 L 900,279 L 900,280 L 899,281 L 899,282 L 898,283 L 898,284 L 897,285 L 897,287 L 896,288 L 896,290 L 895,291 L 895,293 L 894,294 L 894,297 L 893,298 L 893,303 L 892,304 L 892,310 L 891,311 L 891,322 L 890,323 L 890,335 L 889,336 L 889,343 L 888,344 L 888,350 L 887,351 L 887,356 L 886,357 L 886,361 L 885,362 L 885,365 L 884,366 L 884,370 L 883,371 L 883,374 L 882,375 L 882,378 L 881,379 L 881,382 L 880,383 L 880,385 L 879,386 L 879,389 L 878,390 L 878,393 L 877,394 L 877,396 L 876,397 L 876,399 L 875,400 L 875,403 L 874,404 L 874,406 L 873,407 L 873,409 L 872,410 L 872,412 L 871,413 L 871,415 L 870,416 L 870,418 L 869,419 L 869,421 L 868,422 L 868,424 L 867,425 L 867,427 L 866,428 L 866,429 L 865,430 L 865,432 L 864,433 L 864,435 L 863,436 L 863,438 L 862,439 L 862,440 L 861,441 L 861,443 L 860,444 L 860,445 L 859,446 L 859,448 L 858,449 L 858,451 L 857,452 L 857,453 L 856,454 L 856,456 L 855,457 L 855,458 L 854,459 L 854,460 L 853,461 L 853,463 L 852,464 L 852,465 L 851,466 L 851,468 L 850,469 L 850,470 L 849,471 L 849,472 L 848,473 L 848,475 L 847,476 L 847,477 L 846,478 L 846,479 L 845,480 L 845,481 L 844,482 L 844,484 L 843,485 L 843,486 L 842,487 L 842,488 L 841,489 L 841,490 L 840,491 L 840,493 L 839,494 L 839,495 L 838,496 L 838,497 L 837,498 L 837,499 L 836,500 L 836,501 L 835,502 L 835,503 L 834,504 L 834,505 L 833,506 L 833,507 L 832,508 L 832,509 L 831,510 L 831,511 L 830,512 L 830,513 L 829,514 L 829,515 L 828,516 L 828,517 L 827,518 L 827,519 L 826,520 L 826,521 L 825,522 L 825,523 L 824,524 L 824,525 L 823,526 L 823,527 L 822,528 L 822,529 L 821,530 L 821,531 L 820,532 L 820,533 L 819,534 L 819,535 L 818,536 L 818,537 L 817,538 L 817,539 L 815,541 L 815,542 L 814,543 L 814,544 L 813,545 L 813,546 L 812,547 L 812,548 L 811,549 L 811,550 L 809,552 L 809,553 L 808,554 L 808,555 L 807,556 L 807,557 L 805,559 L 805,560 L 804,561 L 804,562 L 803,563 L 803,564 L 801,566 L 801,567 L 800,568 L 800,569 L 798,571 L 798,572 L 797,573 L 797,574 L 795,576 L 795,577 L 794,578 L 794,579 L 792,581 L 792,582 L 791,583 L 791,584 L 789,586 L 789,587 L 787,589 L 787,590 L 785,592 L 785,593 L 784,594 L 784,595 L 782,597 L 782,598 L 780,600 L 780,601 L 778,603 L 778,604 L 776,606 L 776,607 L 774,609 L 774,610 L 771,613 L 771,614 L 769,616 L 769,617 L 766,620 L 766,621 L 764,623 L 764,624 L 761,627 L 761,628 L 758,631 L 758,632 L 754,636 L 754,637 L 751,640 L 751,641 L 746,646 L 746,647 L 740,653 L 740,654 L 716,678 L 715,678 L 710,683 L 709,683 L 705,687 L 704,687 L 691,700 L 691,701 L 688,704 L 688,705 L 686,707 L 686,708 L 684,710 L 684,711 L 683,712 L 683,713 L 682,714 L 682,715 L 681,716 L 681,717 L 680,718 L 680,719 L 679,720 L 679,721 L 678,722 L 678,724 L 677,725 L 677,727 L 676,728 L 676,730 L 675,731 L 675,734 L 674,735 L 674,738 L 673,739 L 673,744 L 672,745 L 672,770 L 673,771 L 673,776 L 674,777 L 674,781 L 675,782 L 675,785 L 676,786 L 676,788 L 677,789 L 677,791 L 678,792 L 678,793 L 679,794 L 679,796 L 680,797 L 680,798 L 681,799 L 681,800 L 682,801 L 682,802 L 683,803 L 683,804 L 685,806 L 685,807 L 687,809 L 687,810 L 689,812 L 689,813 L 692,816 L 692,817 L 705,830 L 706,830 L 709,833 L 710,833 L 712,835 L 713,835 L 714,836 L 715,836 L 717,838 L 718,838 L 719,839 L 720,839 L 721,840 L 722,840 L 723,841 L 724,841 L 725,842 L 727,842 L 728,843 L 730,843 L 731,844 L 733,844 L 734,845 L 736,845 L 737,846 L 741,846 L 742,847 L 747,847 L 748,848 L 762,848 L 763,847 L 771,847 L 772,846 L 776,846 L 777,845 L 779,845 L 780,844 L 782,844 L 783,843 L 785,843 L 786,842 L 788,842 L 789,841 L 790,841 L 791,840 L 792,840 L 793,839 L 794,839 L 795,838 L 796,838 L 797,837 L 798,837 L 800,835 L 801,835 L 803,833 L 804,833 L 807,830 L 808,830 L 822,816 L 822,815 L 825,812 L 825,811 L 826,810 L 826,809 L 828,807 L 828,806 L 829,805 L 829,804 L 830,803 L 830,802 L 831,801 L 831,800 L 832,799 L 832,798 L 833,797 L 833,796 L 834,795 L 834,793 L 835,792 L 835,791 L 836,790 L 836,788 L 837,787 L 837,784 L 838,783 L 838,780 L 839,779 L 839,774 L 840,773 L 840,753 L 841,752 L 841,742 L 842,741 L 842,735 L 843,734 L 843,728 L 844,727 L 844,723 L 845,722 L 845,718 L 846,717 L 846,713 L 847,712 L 847,709 L 848,708 L 848,705 L 849,704 L 849,701 L 850,700 L 850,697 L 851,696 L 851,693 L 852,692 L 852,690 L 853,689 L 853,686 L 854,685 L 854,683 L 855,682 L 855,679 L 856,678 L 856,676 L 857,675 L 857,673 L 858,672 L 858,670 L 859,669 L 859,667 L 860,666 L 860,663 L 861,662 L 861,660 L 862,659 L 862,658 L 863,657 L 863,655 L 864,654 L 864,652 L 865,651 L 865,649 L 866,648 L 866,646 L 867,645 L 867,644 L 868,643 L 868,641 L 869,640 L 869,638 L 870,637 L 870,636 L 871,635 L 871,633 L 872,632 L 872,630 L 873,629 L 873,628 L 874,627 L 874,625 L 875,624 L 875,623 L 876,622 L 876,620 L 877,619 L 877,618 L 878,617 L 878,616 L 879,615 L 879,613 L 880,612 L 880,611 L 881,610 L 881,608 L 882,607 L 882,606 L 883,605 L 883,604 L 884,603 L 884,602 L 885,601 L 885,599 L 886,598 L 886,597 L 887,596 L 887,595 L 888,594 L 888,593 L 889,592 L 889,590 L 890,589 L 890,588 L 891,587 L 891,586 L 892,585 L 892,584 L 893,583 L 893,582 L 894,581 L 894,580 L 895,579 L 895,577 L 896,576 L 896,575 L 897,574 L 897,573 L 898,572 L 898,571 L 899,570 L 899,569 L 900,568 L 900,567 L 901,566 L 901,565 L 902,564 L 902,563 L 903,562 L 903,561 L 904,560 L 904,559 L 905,558 L 905,557 L 906,556 L 906,555 L 907,554 L 907,553 L 908,552 L 908,551 L 909,550 L 909,549 L 910,548 L 910,547 L 912,545 L 912,544 L 913,543 L 913,542 L 914,541 L 914,540 L 915,539 L 915,538 L 916,537 L 916,536 L 917,535 L 917,534 L 919,532 L 919,531 L 920,530 L 920,529 L 921,528 L 921,527 L 922,526 L 922,525 L 924,523 L 924,522 L 925,521 L 925,520 L 926,519 L 926,518 L 928,516 L 928,515 L 929,514 L 929,513 L 931,511 L 931,510 L 932,509 L 932,508 L 933,507 L 933,506 L 935,504 L 935,503 L 937,501 L 937,500 L 938,499 L 938,498 L 940,496 L 940,495 L 941,494 L 941,493 L 943,491 L 943,490 L 945,488 L 945,487 L 947,485 L 947,484 L 948,483 L 948,482 L 950,480 L 950,479 L 952,477 L 952,476 L 954,474 L 954,473 L 957,470 L 957,469 L 959,467 L 959,466 L 961,464 L 961,463 L 963,461 L 963,460 L 966,457 L 966,456 L 969,453 L 969,452 L 972,449 L 972,448 L 975,445 L 975,444 L 979,440 L 979,439 L 983,435 L 983,434 L 989,428 L 989,427 L 999,417 L 999,416 L 1007,408 L 1008,408 L 1017,399 L 1018,399 L 1022,395 L 1023,395 L 1025,393 L 1026,393 L 1041,378 L 1041,377 L 1044,374 L 1044,373 L 1046,371 L 1046,370 L 1047,369 L 1047,368 L 1049,366 L 1049,365 L 1050,364 L 1050,363 L 1051,362 L 1051,361 L 1052,360 L 1052,358 L 1053,357 L 1053,356 L 1054,355 L 1054,353 L 1055,352 L 1055,350 L 1056,349 L 1056,347 L 1057,346 L 1057,343 L 1058,342 L 1058,338 L 1059,337 L 1059,327 L 1060,326 L 1060,316 L 1059,315 L 1059,306 L 1058,305 L 1058,301 L 1057,300 L 1057,297 L 1056,296 L 1056,293 L 1055,292 L 1055,290 L 1054,289 L 1054,288 L 1053,287 L 1053,285 L 1052,284 L 1052,283 L 1051,282 L 1051,281 L 1050,280 L 1050,279 L 1049,278 L 1049,277 L 1048,276 L 1048,275 L 1047,274 L 1047,273 L 1045,271 L 1045,270 L 1044,269 L 1044,268 L 1041,265 L 1041,264 L 1036,259 L 1036,258 L 1031,253 L 1030,253 L 1025,248 L 1024,248 L 1022,246 L 1021,246 L 1019,244 L 1018,244 L 1016,242 L 1015,242 L 1014,241 L 1013,241 L 1012,240 L 1011,240 L 1010,239 L 1009,239 L 1008,238 L 1007,238 L 1006,237 L 1004,237 L 1003,236 L 1001,236 L 1000,235 L 998,235 L 997,234 L 994,234 L 993,233 L 990,233 L 989,232 L 982,232 L 981,231 Z" fill="white" /><path d="M 97,231 L 96,232 L 88,232 L 87,233 L 84,233 L 83,234 L 81,234 L 80,235 L 78,235 L 77,236 L 75,236 L 74,237 L 73,237 L 72,238 L 70,238 L 69,239 L 68,239 L 67,240 L 66,240 L 65,241 L 64,241 L 62,243 L 61,243 L 59,245 L 58,245 L 56,247 L 55,247 L 52,250 L 51,250 L 40,261 L 40,262 L 37,265 L 37,266 L 34,269 L 34,270 L 33,271 L 33,272 L 31,274 L 31,275 L 30,276 L 30,277 L 29,278 L 29,279 L 28,280 L 28,281 L 27,282 L 27,284 L 26,285 L 26,286 L 25,287 L 25,289 L 24,290 L 24,292 L 23,293 L 23,295 L 22,296 L 22,299 L 21,300 L 21,304 L 20,305 L 20,315 L 19,316 L 19,325 L 20,326 L 20,338 L 21,339 L 21,342 L 22,343 L 22,346 L 23,347 L 23,350 L 24,351 L 24,353 L 25,354 L 25,355 L 26,356 L 26,358 L 27,359 L 27,360 L 28,361 L 28,362 L 29,363 L 29,364 L 30,365 L 30,366 L 31,367 L 31,368 L 33,370 L 33,371 L 35,373 L 35,374 L 38,377 L 38,378 L 44,384 L 44,385 L 45,386 L 46,386 L 52,392 L 53,392 L 56,395 L 57,395 L 60,398 L 61,398 L 68,405 L 69,405 L 80,416 L 80,417 L 90,427 L 90,428 L 95,433 L 95,434 L 100,439 L 100,440 L 104,444 L 104,445 L 107,448 L 107,449 L 110,452 L 110,453 L 113,456 L 113,457 L 115,459 L 115,460 L 118,463 L 118,464 L 120,466 L 120,467 L 122,469 L 122,470 L 124,472 L 124,473 L 127,476 L 127,477 L 128,478 L 128,479 L 130,481 L 130,482 L 132,484 L 132,485 L 134,487 L 134,488 L 136,490 L 136,491 L 137,492 L 137,493 L 139,495 L 139,496 L 141,498 L 141,499 L 142,500 L 142,501 L 144,503 L 144,504 L 145,505 L 145,506 L 147,508 L 147,509 L 148,510 L 148,511 L 150,513 L 150,514 L 151,515 L 151,516 L 152,517 L 152,518 L 154,520 L 154,521 L 155,522 L 155,523 L 156,524 L 156,525 L 158,527 L 158,528 L 159,529 L 159,530 L 160,531 L 160,532 L 161,533 L 161,534 L 162,535 L 162,536 L 164,538 L 164,539 L 165,540 L 165,541 L 166,542 L 166,543 L 167,544 L 167,545 L 168,546 L 168,547 L 169,548 L 169,549 L 170,550 L 170,551 L 171,552 L 171,553 L 172,554 L 172,555 L 173,556 L 173,557 L 175,559 L 175,560 L 176,561 L 176,562 L 177,563 L 177,565 L 178,566 L 178,567 L 179,568 L 179,569 L 180,570 L 180,571 L 181,572 L 181,573 L 182,574 L 182,575 L 183,576 L 183,577 L 184,578 L 184,579 L 185,580 L 185,581 L 186,582 L 186,583 L 187,584 L 187,585 L 188,586 L 188,588 L 189,589 L 189,590 L 190,591 L 190,592 L 191,593 L 191,594 L 192,595 L 192,596 L 193,597 L 193,599 L 194,600 L 194,601 L 195,602 L 195,603 L 196,604 L 196,606 L 197,607 L 197,608 L 198,609 L 198,610 L 199,611 L 199,613 L 200,614 L 200,615 L 201,616 L 201,617 L 202,618 L 202,620 L 203,621 L 203,622 L 204,623 L 204,625 L 205,626 L 205,627 L 206,628 L 206,630 L 207,631 L 207,632 L 208,633 L 208,635 L 209,636 L 209,638 L 210,639 L 210,640 L 211,641 L 211,643 L 212,644 L 212,646 L 213,647 L 213,648 L 214,649 L 214,651 L 215,652 L 215,654 L 216,655 L 216,657 L 217,658 L 217,660 L 218,661 L 218,663 L 219,664 L 219,666 L 220,667 L 220,669 L 221,670 L 221,672 L 222,673 L 222,675 L 223,676 L 223,678 L 224,679 L 224,682 L 225,683 L 225,685 L 226,686 L 226,689 L 227,690 L 227,692 L 228,693 L 228,696 L 229,697 L 229,700 L 230,701 L 230,704 L 231,705 L 231,709 L 232,710 L 232,714 L 233,715 L 233,719 L 234,720 L 234,725 L 235,726 L 235,733 L 236,734 L 236,742 L 237,743 L 237,754 L 238,755 L 238,766 L 239,767 L 239,774 L 240,775 L 240,780 L 241,781 L 241,784 L 242,785 L 242,787 L 243,788 L 243,790 L 244,791 L 244,793 L 245,794 L 245,795 L 246,796 L 246,798 L 247,799 L 247,800 L 248,801 L 248,802 L 249,803 L 249,804 L 251,806 L 251,807 L 252,808 L 252,809 L 254,811 L 254,812 L 257,815 L 257,816 L 271,830 L 272,830 L 275,833 L 276,833 L 278,835 L 279,835 L 280,836 L 281,836 L 282,837 L 283,837 L 285,839 L 286,839 L 287,840 L 289,840 L 290,841 L 291,841 L 292,842 L 293,842 L 294,843 L 296,843 L 297,844 L 299,844 L 300,845 L 303,845 L 304,846 L 308,846 L 309,847 L 335,847 L 336,846 L 340,846 L 341,845 L 344,845 L 345,844 L 348,844 L 349,843 L 350,843 L 351,842 L 353,842 L 354,841 L 355,841 L 356,840 L 357,840 L 358,839 L 359,839 L 360,838 L 361,838 L 362,837 L 363,837 L 365,835 L 366,835 L 367,834 L 368,834 L 371,831 L 372,831 L 377,826 L 378,826 L 383,821 L 383,820 L 389,814 L 389,813 L 391,811 L 391,810 L 393,808 L 393,807 L 394,806 L 394,805 L 396,803 L 396,802 L 397,801 L 397,800 L 398,799 L 398,798 L 399,797 L 399,796 L 400,795 L 400,793 L 401,792 L 401,791 L 402,790 L 402,788 L 403,787 L 403,784 L 404,783 L 404,780 L 405,779 L 405,775 L 406,774 L 406,770 L 407,769 L 407,764 L 408,763 L 408,758 L 409,757 L 409,753 L 410,752 L 410,748 L 411,747 L 411,744 L 412,743 L 412,740 L 413,739 L 413,737 L 414,736 L 414,733 L 415,732 L 415,730 L 416,729 L 416,727 L 417,726 L 417,724 L 418,723 L 418,722 L 419,721 L 419,719 L 420,718 L 420,716 L 421,715 L 421,714 L 422,713 L 422,711 L 423,710 L 423,709 L 424,708 L 424,707 L 425,706 L 425,704 L 426,703 L 426,702 L 427,701 L 427,700 L 428,699 L 428,698 L 429,697 L 429,696 L 430,695 L 430,694 L 431,693 L 431,692 L 432,691 L 432,690 L 433,689 L 433,688 L 434,687 L 434,686 L 435,685 L 435,684 L 436,683 L 436,682 L 437,681 L 437,680 L 439,678 L 439,677 L 440,676 L 440,675 L 441,674 L 441,673 L 443,671 L 443,670 L 444,669 L 444,668 L 445,667 L 445,666 L 447,664 L 447,663 L 449,661 L 449,660 L 450,659 L 450,658 L 452,656 L 452,655 L 454,653 L 454,652 L 456,650 L 456,649 L 458,647 L 458,646 L 460,644 L 460,643 L 462,641 L 462,640 L 465,637 L 465,636 L 467,634 L 467,633 L 470,630 L 470,629 L 473,626 L 473,625 L 477,621 L 477,620 L 481,616 L 481,615 L 485,611 L 485,610 L 492,603 L 492,602 L 522,572 L 523,572 L 529,566 L 530,566 L 533,563 L 534,563 L 538,559 L 539,559 L 541,557 L 542,557 L 544,555 L 545,555 L 547,553 L 548,553 L 550,551 L 551,551 L 553,549 L 554,549 L 555,548 L 556,548 L 557,547 L 558,547 L 559,546 L 560,546 L 561,545 L 562,545 L 563,544 L 564,544 L 565,543 L 566,543 L 567,542 L 568,542 L 569,541 L 571,541 L 572,540 L 573,540 L 574,539 L 575,539 L 576,538 L 577,538 L 578,537 L 579,537 L 580,536 L 581,536 L 582,535 L 583,535 L 585,533 L 586,533 L 588,531 L 589,531 L 591,529 L 592,529 L 607,514 L 607,513 L 610,510 L 610,509 L 612,507 L 612,506 L 613,505 L 613,504 L 615,502 L 615,501 L 616,500 L 616,499 L 617,498 L 617,497 L 618,496 L 618,495 L 619,494 L 619,492 L 620,491 L 620,490 L 621,489 L 621,487 L 622,486 L 622,484 L 623,483 L 623,480 L 624,479 L 624,476 L 625,475 L 625,471 L 626,470 L 626,442 L 625,441 L 625,437 L 624,436 L 624,432 L 623,431 L 623,429 L 622,428 L 622,426 L 621,425 L 621,423 L 620,422 L 620,420 L 619,419 L 619,418 L 618,417 L 618,416 L 617,415 L 617,414 L 616,413 L 616,412 L 615,411 L 615,410 L 614,409 L 614,408 L 613,407 L 613,406 L 611,404 L 611,403 L 608,400 L 608,399 L 605,396 L 605,395 L 595,385 L 594,385 L 591,382 L 590,382 L 588,380 L 587,380 L 585,378 L 584,378 L 582,376 L 581,376 L 580,375 L 579,375 L 578,374 L 577,374 L 576,373 L 575,373 L 574,372 L 572,372 L 571,371 L 570,371 L 569,370 L 567,370 L 566,369 L 563,369 L 562,368 L 559,368 L 558,367 L 554,367 L 553,366 L 530,366 L 529,367 L 525,367 L 524,368 L 521,368 L 520,369 L 518,369 L 517,370 L 515,370 L 514,371 L 512,371 L 511,372 L 510,372 L 509,373 L 507,373 L 506,374 L 505,374 L 504,375 L 503,375 L 501,377 L 500,377 L 499,378 L 498,378 L 496,380 L 495,380 L 493,382 L 492,382 L 488,386 L 487,386 L 480,393 L 480,394 L 475,399 L 475,400 L 473,402 L 473,403 L 471,405 L 471,406 L 470,407 L 470,408 L 468,410 L 468,411 L 467,412 L 467,413 L 466,414 L 466,415 L 465,416 L 465,418 L 464,419 L 464,420 L 463,421 L 463,423 L 462,424 L 462,425 L 461,426 L 461,429 L 460,430 L 460,432 L 459,433 L 459,437 L 458,438 L 458,442 L 457,443 L 457,451 L 456,452 L 456,459 L 455,460 L 455,464 L 454,465 L 454,469 L 453,470 L 453,473 L 452,474 L 452,476 L 451,477 L 451,480 L 450,481 L 450,483 L 449,484 L 449,486 L 448,487 L 448,489 L 447,490 L 447,492 L 446,493 L 446,494 L 445,495 L 445,497 L 444,498 L 444,499 L 443,500 L 443,502 L 442,503 L 442,504 L 441,505 L 441,506 L 440,507 L 440,509 L 439,510 L 439,511 L 438,512 L 438,513 L 437,514 L 437,515 L 436,516 L 436,517 L 435,518 L 435,519 L 434,520 L 434,521 L 433,522 L 433,523 L 432,524 L 432,525 L 431,526 L 431,527 L 430,528 L 430,529 L 429,530 L 429,531 L 428,532 L 428,533 L 427,534 L 427,535 L 425,537 L 425,538 L 424,539 L 424,540 L 423,541 L 423,542 L 421,544 L 421,545 L 420,546 L 420,547 L 418,549 L 418,550 L 417,551 L 417,552 L 415,554 L 415,555 L 414,556 L 414,557 L 412,559 L 412,560 L 410,562 L 410,563 L 408,565 L 408,566 L 406,568 L 406,569 L 403,572 L 403,573 L 401,575 L 401,576 L 399,578 L 399,579 L 396,582 L 396,583 L 393,586 L 393,587 L 389,591 L 389,592 L 385,596 L 385,597 L 376,606 L 375,606 L 372,609 L 371,609 L 370,610 L 369,610 L 368,611 L 367,611 L 366,612 L 365,612 L 364,613 L 363,613 L 362,614 L 360,614 L 359,615 L 357,615 L 356,616 L 353,616 L 352,617 L 344,617 L 343,618 L 340,618 L 339,617 L 331,617 L 330,616 L 327,616 L 326,615 L 323,615 L 322,614 L 321,614 L 320,613 L 318,613 L 317,612 L 316,612 L 315,611 L 314,611 L 312,609 L 311,609 L 310,608 L 309,608 L 305,604 L 304,604 L 297,597 L 297,596 L 294,593 L 294,592 L 292,590 L 292,589 L 290,587 L 290,586 L 288,584 L 288,583 L 286,581 L 286,580 L 285,579 L 285,578 L 283,576 L 283,575 L 282,574 L 282,573 L 280,571 L 280,570 L 279,569 L 279,568 L 277,566 L 277,565 L 276,564 L 276,563 L 275,562 L 275,561 L 273,559 L 273,558 L 272,557 L 272,556 L 271,555 L 271,554 L 270,553 L 270,552 L 268,550 L 268,549 L 267,548 L 267,547 L 266,546 L 266,545 L 265,544 L 265,543 L 264,542 L 264,541 L 263,540 L 263,539 L 261,537 L 261,536 L 260,535 L 260,534 L 259,533 L 259,532 L 258,531 L 258,530 L 257,529 L 257,528 L 256,527 L 256,526 L 255,525 L 255,524 L 254,523 L 254,522 L 253,521 L 253,520 L 252,519 L 252,518 L 251,517 L 251,516 L 250,515 L 250,514 L 249,513 L 249,512 L 248,511 L 248,510 L 247,509 L 247,508 L 246,507 L 246,506 L 245,505 L 245,504 L 244,503 L 244,502 L 243,501 L 243,500 L 242,499 L 242,498 L 241,497 L 241,496 L 240,495 L 240,494 L 239,493 L 239,491 L 238,490 L 238,489 L 237,488 L 237,487 L 236,486 L 236,485 L 235,484 L 235,483 L 234,482 L 234,480 L 233,479 L 233,478 L 232,477 L 232,476 L 231,475 L 231,473 L 230,472 L 230,471 L 229,470 L 229,469 L 228,468 L 228,466 L 227,465 L 227,464 L 226,463 L 226,462 L 225,461 L 225,459 L 224,458 L 224,457 L 223,456 L 223,454 L 222,453 L 222,452 L 221,451 L 221,449 L 220,448 L 220,447 L 219,446 L 219,444 L 218,443 L 218,441 L 217,440 L 217,439 L 216,438 L 216,436 L 215,435 L 215,433 L 214,432 L 214,431 L 213,430 L 213,428 L 212,427 L 212,425 L 211,424 L 211,422 L 210,421 L 210,419 L 209,418 L 209,416 L 208,415 L 208,413 L 207,412 L 207,410 L 206,409 L 206,407 L 205,406 L 205,404 L 204,403 L 204,401 L 203,400 L 203,397 L 202,396 L 202,394 L 201,393 L 201,390 L 200,389 L 200,387 L 199,386 L 199,383 L 198,382 L 198,379 L 197,378 L 197,375 L 196,374 L 196,371 L 195,370 L 195,367 L 194,366 L 194,362 L 193,361 L 193,357 L 192,356 L 192,351 L 191,350 L 191,345 L 190,344 L 190,338 L 189,337 L 189,327 L 188,326 L 188,312 L 187,311 L 187,304 L 186,303 L 186,299 L 185,298 L 185,294 L 184,293 L 184,291 L 183,290 L 183,288 L 182,287 L 182,285 L 181,284 L 181,283 L 180,282 L 180,281 L 179,280 L 179,278 L 178,277 L 178,276 L 176,274 L 176,273 L 175,272 L 175,271 L 173,269 L 173,268 L 170,265 L 170,264 L 165,259 L 165,258 L 159,252 L 158,252 L 153,247 L 152,247 L 150,245 L 149,245 L 147,243 L 146,243 L 144,241 L 143,241 L 142,240 L 141,240 L 140,239 L 139,239 L 138,238 L 137,238 L 136,237 L 134,237 L 133,236 L 131,236 L 130,235 L 128,235 L 127,234 L 125,234 L 124,233 L 121,233 L 120,232 L 113,232 L 112,231 Z" fill="white" />
</svg>